<svg version="1.1" id="Layer_1" xmlns="http://www.w3.org/2000/svg" xmlns:xlink="http://www.w3.org/1999/xlink" x="0px" y="0px"
	 width="100%" viewBox="0 0 1024 1024" enable-background="new 0 0 1024 1024" xml:space="preserve">
<path fill="#000000" opacity="1.000000" stroke="none" 
	d="
M303.083771,549.368408 
	C307.709991,531.890442 302.904785,515.313477 300.638214,498.627533 
	C300.080444,494.521423 296.783905,492.427979 293.258392,491.177399 
	C286.816498,488.892212 284.020691,484.627686 284.626801,477.796967 
	C284.964386,473.992676 284.602997,470.131805 284.746674,466.303589 
	C284.964844,460.492004 287.860779,457.095398 293.523682,455.735535 
	C297.286102,454.832031 301.125122,454.768219 304.956879,454.857819 
	C307.637177,454.920502 309.239838,454.028625 310.073730,451.256622 
	C311.559265,446.318207 313.337921,441.461670 315.157440,436.632477 
	C316.109436,434.105804 315.718750,432.267944 313.618530,430.464294 
	C300.398254,419.111053 295.151703,404.446869 295.712769,387.308136 
	C296.191681,372.678925 294.499023,357.874664 297.687958,343.467163 
	C302.167084,323.230743 313.616577,307.813263 331.991394,297.833069 
	C334.663696,296.381592 337.044617,294.758240 338.805847,292.162323 
	C365.304382,253.104813 400.063202,222.978302 440.269531,198.852219 
	C474.549591,178.282196 511.017456,163.182953 550.553284,156.199265 
	C577.255066,151.482620 603.720764,152.066025 629.218689,162.249878 
	C651.282776,171.062256 668.828064,185.958511 683.059692,204.812363 
	C707.817017,237.610504 721.874878,274.706055 727.458496,315.258636 
	C728.914856,325.835785 729.490601,336.455200 730.162537,347.075714 
	C730.346985,349.991180 731.248657,351.969818 733.495544,353.849030 
	C744.012329,362.645142 751.781189,373.242126 753.867615,387.180023 
	C754.804382,393.438019 755.187317,399.769958 755.000427,406.110809 
	C754.593201,419.927277 755.937195,433.793793 754.309448,447.560730 
	C752.687012,461.281921 745.803955,471.977448 733.946838,479.130249 
	C730.881531,480.979401 729.790588,482.871582 730.380493,486.336334 
	C736.168884,520.337097 739.725647,554.509705 740.651367,589.056824 
	C741.622681,625.309448 738.903564,660.988708 728.115540,695.665283 
	C710.838013,751.201355 677.117859,793.888428 626.465393,822.882202 
	C622.628235,825.078674 618.562012,826.874939 613.684082,829.316895 
	C620.965576,829.811035 627.198792,830.385620 633.445007,830.629089 
	C651.431641,831.330261 669.357483,832.582397 687.121643,835.655090 
	C690.916199,836.311401 694.588135,837.335205 698.171448,838.699402 
	C700.127991,839.444275 701.812195,840.621704 701.887268,842.930054 
	C701.966125,845.357361 700.049927,846.393127 698.185181,847.136108 
	C690.364929,850.252075 682.062012,851.248169 673.802002,852.143494 
	C640.166626,855.789551 606.399414,857.285400 572.597778,858.474304 
	C540.101562,859.617249 507.608032,859.501587 475.123962,858.952209 
	C436.651398,858.301514 398.204010,856.578064 359.947449,852.136780 
	C352.042175,851.219116 344.061554,850.243347 336.494293,847.447937 
	C334.284363,846.631531 331.840210,845.798889 331.813416,842.939514 
	C331.786682,840.088623 334.209961,839.021118 336.402679,838.315613 
	C347.253082,834.824097 358.523956,833.613647 369.805573,832.740540 
	C386.700470,831.432922 403.618103,830.418884 421.525360,829.212646 
	C408.592407,822.120239 396.499725,815.488159 385.625702,806.902161 
	C338.615295,769.783508 310.431519,721.642212 301.668854,662.414490 
	C297.481476,634.111450 298.235413,605.612915 300.534302,577.160828 
	C301.271362,568.038513 302.171875,558.929382 303.083771,549.368408 
M450.514008,552.925476 
	C439.600952,570.159119 425.085480,582.864685 405.035278,588.195557 
	C376.124664,595.882263 350.877991,588.118103 328.389862,568.566650 
	C327.897827,570.042969 327.472626,570.791016 327.415588,571.566162 
	C325.447876,598.319763 323.970337,625.087952 326.196167,651.899841 
	C328.555603,680.320740 337.682465,706.698730 352.581207,730.743408 
	C378.747650,772.972595 416.749969,798.905518 465.126160,810.142639 
	C493.219360,816.668213 521.022705,816.652649 549.073914,809.940674 
	C577.458374,803.148987 602.604980,790.490662 624.823730,771.563538 
	C640.602295,758.122559 653.347961,742.271423 663.970032,724.663269 
	C674.817688,706.681152 681.331665,686.972900 685.669800,666.524048 
	C688.527893,653.052002 691.076660,639.507141 691.662048,625.708435 
	C692.086243,615.710327 691.926636,615.703552 682.085693,615.353027 
	C666.827576,614.809692 656.135681,602.224976 657.735840,586.692505 
	C659.044983,573.984924 673.305969,564.370178 686.982849,566.941467 
	C688.052795,567.142639 689.225403,567.814758 690.590149,566.362854 
	C690.590149,564.239624 690.801819,561.736511 690.557068,559.278748 
	C688.402771,537.647217 684.610107,516.270020 680.362427,494.968842 
	C680.077087,493.537903 679.614258,491.999695 677.975708,491.392273 
	C674.948120,490.269928 666.953369,494.947815 666.491943,498.215912 
	C666.051636,501.334656 665.739014,504.479736 665.548157,507.624023 
	C664.400513,526.524353 658.360779,543.808960 647.515686,559.204590 
	C632.432129,580.617004 611.238403,591.712524 585.271484,590.987549 
	C551.056702,590.032227 527.840332,571.524841 513.202759,541.375793 
	C506.364594,527.291199 503.136108,512.164612 500.568878,496.847778 
	C498.786346,486.212891 496.424042,484.285065 485.815918,484.266205 
	C483.982697,484.262939 482.149139,484.299072 480.316345,484.272247 
	C475.019226,484.194672 471.884552,487.011261 470.552002,491.877075 
	C469.587250,495.400024 468.895691,499.007690 468.258667,502.608795 
	C465.161316,520.118225 460.162048,536.954651 450.514008,552.925476 
M320.341644,351.027344 
	C320.011536,361.343231 319.323517,371.664917 319.490295,381.972748 
	C319.584930,387.820251 318.196259,394.590210 325.031708,398.699677 
	C329.440033,396.070129 333.967804,393.369354 338.298401,390.786163 
	C338.563416,386.763611 335.926025,384.152679 334.657806,380.749725 
	C331.398438,384.018646 331.398438,384.018646 328.363770,381.195587 
	C336.986511,380.362701 335.677887,374.229767 335.694489,368.759033 
	C335.712677,362.760498 335.673096,356.760895 335.777191,350.763824 
	C335.855042,346.279358 335.189423,341.750854 336.259308,337.317413 
	C337.621948,331.670654 341.243591,328.580139 345.883301,328.931946 
	C350.512421,329.282928 353.635895,332.865631 353.842957,338.799103 
	C354.022644,343.948425 353.515656,349.118469 353.587921,354.275513 
	C353.691986,361.703339 351.016418,369.633820 357.282501,375.642853 
	C356.949097,377.427948 353.780609,377.166016 355.468628,379.826019 
	C356.651062,381.689331 357.514557,383.265594 359.947418,382.729950 
	C364.979065,381.622040 370.017609,380.530243 375.006439,379.249268 
	C377.692871,378.559448 377.678131,376.222382 377.670380,373.977234 
	C377.646362,367.015228 377.660919,360.053070 377.673584,353.090973 
	C377.689667,344.259674 377.577789,335.425018 377.788910,326.598206 
	C377.943268,320.145782 382.144470,315.657593 387.301575,315.882721 
	C392.493103,316.109314 395.523010,320.197510 395.507507,326.961273 
	C395.482330,337.953644 395.198425,348.954102 395.543182,359.934814 
	C395.700928,364.957703 394.628784,370.139008 396.351624,375.104095 
	C402.770050,374.683105 408.836975,373.870941 414.902222,372.850586 
	C418.980927,372.164398 420.936096,370.785339 420.845367,366.165222 
	C420.613251,354.344421 420.873383,342.511719 421.066711,330.685913 
	C421.140106,326.195953 421.348602,321.684662 421.895538,317.232269 
	C422.500580,312.306763 425.787537,309.238281 429.943573,309.103271 
	C434.182343,308.965607 437.607086,311.825073 438.579346,316.605713 
	C438.972748,318.540222 438.991089,320.575989 438.977356,322.564301 
	C438.880890,336.535217 437.749512,350.496704 439.102600,364.482544 
	C439.502411,368.615021 440.695496,370.421753 445.145111,370.020233 
	C450.274506,369.557343 455.465820,369.662415 460.628021,369.720276 
	C464.263367,369.761017 465.755585,368.081421 465.749084,364.572815 
	C465.739563,359.443848 465.834595,354.314117 465.932922,349.185669 
	C466.140198,338.374908 466.398956,327.565155 466.592743,316.754181 
	C466.658508,313.084503 468.233612,310.303650 471.413849,308.583710 
	C474.372284,306.983673 477.287292,307.781952 479.930725,309.467194 
	C483.659149,311.844116 484.017059,315.677826 484.011261,319.616516 
	C483.989502,334.415070 483.457672,349.208832 484.043884,364.015900 
	C484.212952,368.286774 485.998535,369.597778 489.763885,369.637238 
	C494.924316,369.691284 500.091675,369.689606 505.241516,369.974670 
	C510.539337,370.267975 511.668060,369.242279 511.659058,363.914703 
	C511.633759,348.924408 511.619263,333.933136 511.767822,318.943939 
	C511.826660,313.007019 514.957581,309.385162 519.671936,309.118286 
	C524.520752,308.843811 528.290222,312.534546 528.902344,318.348602 
	C529.128174,320.493958 529.039978,322.676208 529.034058,324.841461 
	C528.996094,338.657135 528.986694,352.473114 528.863525,366.288086 
	C528.827332,370.343475 529.705322,372.911865 534.638000,372.895844 
	C539.017822,372.881622 543.416260,373.579742 547.762207,374.540741 
	C549.879700,375.008942 552.307007,375.648926 554.751770,374.252686 
	C554.908020,371.475525 555.170776,368.663208 555.207031,365.847961 
	C555.384827,352.044128 555.428589,338.238251 555.673889,324.435822 
	C555.788330,317.994385 560.451599,314.415649 566.280945,315.976624 
	C570.630005,317.141205 573.258484,321.066071 573.255859,326.840881 
	C573.248840,342.501587 573.136353,358.162170 573.096313,373.822906 
	C573.090942,375.919647 572.414795,378.918671 575.105042,379.379150 
	C582.082275,380.573334 588.835266,383.095734 595.969177,383.404907 
	C597.369568,380.490540 597.685303,377.735077 597.686401,374.878937 
	C597.691162,362.383759 597.758240,349.888611 597.780701,337.393402 
	C597.784973,335.044861 597.890930,332.726746 598.859558,330.538330 
	C600.934265,325.851196 605.620483,324.322906 610.047302,326.896759 
	C613.264160,328.767090 614.409363,331.630463 614.416870,335.273651 
	C614.451172,351.915894 614.709961,368.558868 614.570007,385.198914 
	C614.548279,387.780579 615.165710,388.829437 617.400269,389.487061 
	C621.386230,390.660065 625.472046,391.629700 629.280579,393.241119 
	C637.186951,396.586395 637.830872,392.999603 637.727539,386.593811 
	C637.528748,374.272278 637.612305,361.944305 637.726685,349.620392 
	C637.785217,343.313477 640.979248,339.605865 645.871338,339.677063 
	C650.941223,339.750854 654.497131,343.989990 654.462463,349.895416 
	C654.379395,364.043182 655.877808,378.441345 653.680786,392.252106 
	C652.178406,401.696136 656.456848,403.171539 662.646179,405.849396 
	C671.182556,409.542786 675.010559,407.343872 674.975403,398.010864 
	C674.933960,387.016876 674.756287,376.023071 674.769531,365.029358 
	C674.776367,359.345886 678.135315,355.276001 682.616089,355.107697 
	C687.148132,354.937469 692.219360,359.246368 691.910950,364.421631 
	C690.866943,381.939728 695.736084,399.916046 688.086426,416.970551 
	C688.281677,417.184265 688.460632,417.501526 688.732239,417.659302 
	C693.048706,420.166290 697.367310,422.669800 701.705383,425.139099 
	C705.593201,427.352173 707.412292,426.679626 708.457947,422.369812 
	C708.921265,420.460022 708.887939,418.402649 708.888428,416.412231 
	C708.890930,406.249481 708.862976,396.086426 708.777771,385.924072 
	C708.739746,381.392426 710.495667,378.008087 715.023438,376.904938 
	C719.665466,375.773987 722.536438,378.595215 724.733459,382.247253 
	C725.963745,384.292358 726.460815,386.547546 726.451599,388.932983 
	C726.421265,396.749420 726.422607,404.566010 726.390442,412.382477 
	C726.365906,418.351807 726.440796,424.326904 726.174927,430.286194 
	C726.107422,431.799988 724.302124,433.654297 726.905334,434.244385 
	C728.777100,434.668671 730.507751,433.333710 731.234314,431.527039 
	C731.707458,430.350494 731.619263,428.910004 731.619690,427.587708 
	C731.623169,416.609406 731.714050,405.628876 731.521851,394.653534 
	C731.392395,387.261566 728.807434,380.704834 723.648254,375.284882 
	C709.540588,360.463928 692.062988,350.290955 674.371094,340.702759 
	C653.249512,329.255768 630.737610,320.970428 607.790955,313.807831 
	C569.260498,301.780853 529.858887,294.913361 489.562622,293.401611 
	C459.672333,292.280243 429.975281,294.373718 400.607361,300.343903 
	C380.328827,304.466339 360.361115,309.546814 341.590729,318.584167 
	C335.673553,321.433105 331.208710,325.654572 327.752655,331.158020 
	C324.068237,337.025085 321.601135,343.323792 320.341644,351.027344 
M352.213898,417.687256 
	C347.628784,426.984711 343.094391,436.302673 339.698029,446.663605 
	C342.040161,446.789551 343.510468,446.936798 344.980804,446.937592 
	C374.639465,446.953857 404.298248,447.000610 433.956696,446.923981 
	C441.697235,446.903992 448.789795,448.862122 455.234619,453.044708 
	C458.007904,454.844513 460.868744,455.625946 464.166229,455.608521 
	C477.828674,455.536285 491.492645,455.542206 505.154327,455.684082 
	C508.623383,455.720093 511.612061,455.060028 514.479004,452.975098 
	C518.863708,449.786377 523.905273,448.105316 529.317871,447.523773 
	C538.460693,446.541382 547.628235,447.184265 556.783142,447.041199 
	C582.715027,446.636017 608.644287,447.518494 634.583862,447.129242 
	C643.878113,446.989777 653.598755,446.833008 661.760315,453.309570 
	C664.473206,455.462341 668.150452,455.877014 671.455872,453.620117 
	C670.428772,446.555267 667.028564,440.534271 664.974304,434.067291 
	C664.344910,432.086060 662.593811,431.385590 660.923767,430.631012 
	C641.153992,421.698242 620.638245,414.807892 599.654175,409.515198 
	C570.575317,402.180817 541.126343,397.085968 511.109558,394.907318 
	C461.902557,391.335693 413.304291,393.521606 365.407928,406.335052 
	C359.025024,408.042603 354.513245,410.654938 352.213898,417.687256 
M529.670227,251.109009 
	C528.690857,256.843170 527.804932,262.595490 526.692688,268.303772 
	C526.139343,271.143646 527.233948,272.282928 529.909729,272.663300 
	C535.834045,273.505463 541.757385,274.379395 547.646667,275.433014 
	C550.803833,275.997803 552.328003,274.942200 552.753662,271.767181 
	C553.658447,265.016693 554.519897,258.251251 555.738464,251.553696 
	C559.635376,230.135452 565.543152,209.399277 577.821838,191.058136 
	C581.115112,186.138809 585.019043,181.628281 588.687744,176.871506 
	C586.941284,175.814819 585.424561,176.668350 583.873779,177.091904 
	C573.523621,179.918732 565.513184,186.417435 558.397339,193.981522 
	C543.402954,209.920593 534.687378,229.142853 529.670227,251.109009 
M501.078125,270.038452 
	C508.119598,270.641663 508.125916,270.642853 509.411377,263.892639 
	C509.846893,261.605591 510.254822,259.313019 510.652527,257.019043 
	C515.375854,229.774307 524.826172,204.702667 544.103516,184.134186 
	C544.602661,183.601593 545.400391,183.011108 544.649109,182.000031 
	C541.226868,181.871597 538.169434,183.205627 535.184570,184.645432 
	C522.673523,190.680466 513.588135,200.537186 505.383423,211.400345 
	C493.621918,226.972809 486.325684,244.492691 482.536743,263.534332 
	C481.481964,268.834991 482.273407,269.645050 487.680908,269.778015 
	C491.843292,269.880371 496.006866,269.933716 501.078125,270.038452 
M603.409241,203.022400 
	C605.403015,197.487457 607.396851,191.952515 609.585022,185.878098 
	C605.588257,186.897324 603.038513,188.995636 600.587769,191.188004 
	C594.166321,196.932480 589.312134,203.860352 585.892822,211.722717 
	C577.689087,230.586212 572.330017,250.230667 570.247375,270.724213 
	C569.332214,279.729126 569.382996,279.734283 578.595520,281.745270 
	C589.999878,284.234711 589.602783,284.194611 590.810791,272.233246 
	C593.145752,249.112320 595.543823,225.963043 603.409241,203.022400 
M551.517883,510.005157 
	C545.607971,516.105408 539.701843,522.209412 533.785583,528.303467 
	C532.234802,529.900818 530.724976,531.455383 532.075378,533.958557 
	C533.713074,536.994507 535.273804,540.071960 537.478577,544.303711 
	C561.821716,519.933716 584.686584,495.384186 608.318481,470.560455 
	C605.497681,470.080444 603.876587,469.720001 602.235718,469.540070 
	C595.388611,468.789246 589.455261,469.533936 584.279724,475.388672 
	C573.919373,487.108612 562.808289,498.164978 551.517883,510.005157 
M529.025024,515.251282 
	C542.714172,500.595398 556.403259,485.939484 570.979675,470.333618 
	C557.470154,469.410004 545.379333,468.465942 533.351624,469.905426 
	C524.475159,470.967834 519.252930,477.690857 519.454529,487.169067 
	C519.657410,496.709137 522.315918,505.862000 525.077942,514.947876 
	C525.850647,517.489929 527.022827,517.252930 529.025024,515.251282 
M334.998932,508.508789 
	C346.119629,495.875092 358.622955,484.480743 370.333099,470.421265 
	C366.167297,470.188263 363.561951,469.788940 360.989960,469.943878 
	C351.364807,470.523682 341.699310,468.228790 332.120758,470.228638 
	C324.914307,471.733246 320.543488,477.058380 320.339539,484.322937 
	C320.227509,488.312866 320.073792,492.336182 320.442505,496.297577 
	C321.128815,503.670502 322.135681,511.020111 325.008881,518.296936 
	C329.375305,515.935974 331.457886,511.974762 334.998932,508.508789 
M613.302429,231.736710 
	C610.149353,247.393951 608.638306,263.268860 607.311768,279.148682 
	C606.513245,288.707581 606.808594,288.732300 616.109192,291.874878 
	C622.808777,294.138611 624.208313,293.132751 624.736755,285.920563 
	C626.400757,263.209381 626.788086,240.479553 625.613037,217.737854 
	C625.371216,213.057495 624.779358,208.341431 622.140808,203.149872 
	C616.780090,212.365952 615.996948,221.923996 613.302429,231.736710 
M389.835083,488.929352 
	C395.233765,483.222168 402.138672,478.776276 405.794617,471.116089 
	C395.568939,468.449554 391.369598,469.386200 384.891327,476.044006 
	C367.479736,493.938110 350.269531,512.029419 332.740173,529.806580 
	C329.328613,533.266418 328.845795,535.983826 331.992493,539.508911 
	C332.641846,540.236328 333.099762,541.134521 333.617401,541.911255 
	C334.877472,542.261108 335.255707,539.712708 336.981445,541.284546 
	C338.592621,542.752075 340.093140,541.333557 341.131989,539.944275 
	C343.659363,536.564392 346.898773,533.883240 349.783783,530.859436 
	C357.430389,522.844971 366.097656,515.668701 371.352478,505.594971 
	C371.503448,505.305573 372.204559,505.165253 372.638947,505.184601 
	C374.971191,505.288422 376.036530,503.438263 377.554932,502.203949 
	C382.148743,498.469727 384.683289,492.869141 389.835083,488.929352 
M465.654449,258.347748 
	C470.343079,236.930923 478.585999,217.080170 492.541748,199.057175 
	C467.278595,207.423050 445.951599,247.599152 443.909058,270.016937 
	C446.194397,271.479370 448.742889,270.690521 451.157806,270.646271 
	C462.980042,270.429688 462.979279,270.387360 465.654449,258.347748 
M643.160706,237.534531 
	C643.272400,249.155914 643.205322,260.766022 642.595215,272.384735 
	C642.177551,280.336182 641.988464,288.297180 641.351318,296.243103 
	C641.031799,300.227844 644.664246,304.013763 648.372498,303.288452 
	C651.847534,302.608734 654.304688,300.433899 653.562195,296.165741 
	C653.256226,294.406769 653.284912,292.545807 653.444336,290.756439 
	C654.997803,273.319275 653.626038,256.080231 649.695496,239.066772 
	C648.173462,232.478485 647.142273,225.598038 642.302063,219.150330 
	C642.589600,225.634171 642.831665,231.093781 643.160706,237.534531 
M407.919189,269.329010 
	C407.325623,271.272278 405.555786,272.906799 406.197479,275.618805 
	C410.648132,274.925049 414.864410,273.811981 419.099487,273.735168 
	C423.379150,273.657532 425.088837,271.687683 425.633850,267.880981 
	C425.845215,266.404541 426.199310,264.947266 426.517242,263.487549 
	C429.175690,251.282425 433.533813,239.682220 438.927582,228.340469 
	C425.535461,239.420364 415.644806,253.096527 407.919189,269.329010 
M385.618652,275.286224 
	C386.578674,272.710297 387.538696,270.134338 388.498718,267.558380 
	C382.693207,271.320129 378.925995,276.674988 373.909271,282.177856 
	C383.057739,281.605255 383.636475,281.258545 385.618652,275.286224 
z"/>
<path fill="#000000" opacity="1.000000" stroke="none" 
	d="
M569.228760,755.590332 
	C566.902344,769.713623 551.286133,776.770813 540.906616,774.093628 
	C528.027832,770.771667 520.360596,756.839417 524.301270,744.018127 
	C528.220642,731.266174 541.617676,724.366211 554.069885,728.686340 
	C564.066406,732.154419 569.539429,741.688599 569.228760,755.590332 
z"/>
<path fill="#000000" opacity="1.000000" stroke="none" 
	d="
M486.000000,632.901001 
	C475.015015,632.925110 464.529968,632.978577 454.045166,632.944641 
	C452.065826,632.938232 450.033691,632.807983 448.119415,632.346680 
	C443.181793,631.157104 439.492798,626.318115 439.880341,621.849976 
	C440.320862,616.771118 444.457611,612.841187 450.054901,612.754456 
	C460.870361,612.586853 471.689880,612.675354 482.507721,612.669983 
	C492.826324,612.664856 503.145538,612.606812 513.463257,612.703125 
	C520.435669,612.768250 524.860291,616.563110 525.176758,622.454529 
	C525.468933,627.893188 520.791260,632.515564 513.956482,632.750610 
	C504.813385,633.064941 495.652985,632.874084 486.000000,632.901001 
z"/>
<path fill="#000000" opacity="1.000000" stroke="none" 
	d="
M378.961121,712.190002 
	C371.819672,706.367004 368.388336,699.543335 370.604126,690.473145 
	C372.575012,682.405273 377.011230,676.688416 385.180481,674.320435 
	C395.591614,671.302551 405.841675,676.451904 410.425140,686.933594 
	C414.651367,696.598328 411.398407,706.830261 402.165710,712.417236 
	C394.576172,717.009949 386.891083,717.791565 378.961121,712.190002 
z"/>
<path fill="#000000" opacity="1.000000" stroke="none" 
	d="
M601.039917,626.344482 
	C608.098206,630.201416 611.023560,635.726196 609.542542,641.853394 
	C608.155640,647.591370 602.836853,651.755981 596.817932,651.816956 
	C589.445923,651.891602 583.704834,646.297363 583.718140,639.052246 
	C583.732422,631.288269 589.669678,625.383118 597.236816,625.663879 
	C598.383606,625.706360 599.520935,626.002380 601.039917,626.344482 
z"/>
<path fill="#000000" opacity="1.000000" stroke="none" 
	d="
M642.136658,681.897522 
	C637.735657,680.105469 634.376892,677.757324 634.406738,672.848633 
	C634.434021,668.357422 635.616882,664.236755 640.035706,661.996338 
	C644.488342,659.738647 648.722534,660.828186 651.801025,664.269287 
	C654.589233,667.385925 656.174316,671.364807 654.072327,675.730286 
	C651.713867,680.628052 647.767944,682.756653 642.136658,681.897522 
z"/>
<path fill="#000000" opacity="1.000000" stroke="none" 
	d="
M473.986328,656.687744 
	C480.646881,657.869751 484.256287,661.780029 483.847778,666.918030 
	C483.483337,671.501587 479.293365,675.765015 474.758026,676.167114 
	C470.047546,676.584656 465.355316,672.813110 464.409668,667.849304 
	C463.320679,662.132629 466.894928,657.774292 473.986328,656.687744 
z"/>
<path fill="#000000" opacity="1.000000" stroke="none" 
	d="
M362.864655,626.733643 
	C361.427948,631.826538 358.810791,635.069824 353.476654,635.371887 
	C349.288544,635.609070 346.490143,633.654602 344.646362,630.103394 
	C342.288147,625.561279 343.814209,620.128906 348.140350,617.427612 
	C352.287048,614.838379 357.318359,615.838989 360.564636,619.917480 
	C362.059784,621.795959 362.854828,623.944763 362.864655,626.733643 
z"/>
<path fill="#000000" opacity="1.000000" stroke="none" 
	d="
M470.483612,758.805542 
	C463.485504,761.350525 458.316437,759.321289 456.292938,753.576111 
	C454.484680,748.442017 457.229340,742.981689 462.491241,741.245117 
	C466.462708,739.934387 471.211792,741.704468 473.312469,745.278381 
	C476.139801,750.088440 475.422974,753.921570 470.483612,758.805542 
z"/>
<path fill="#000000" opacity="1.000000" stroke="none" 
	d="
M486.426727,427.490601 
	C480.701813,430.926147 476.813293,430.583069 473.311737,426.612335 
	C470.095306,422.964905 469.855408,417.356140 472.764343,413.814606 
	C475.661621,410.287384 480.994263,409.411407 485.459564,411.729309 
	C491.135010,414.675415 491.693665,421.549011 486.426727,427.490601 
z"/>
</svg>